<svg id="Layer_1" data-name="Layer 1" xmlns="http://www.w3.org/2000/svg" viewBox="0 0 512 512"><title>linkedin-flat</title><path id="_Rectangle_" data-name="&lt;Rectangle&gt;" d="M225.56,0H512a0,0,0,0,1,0,0V286.44A225.56,225.56,0,0,1,286.44,512H0a0,0,0,0,1,0,0V225.56A225.56,225.56,0,0,1,225.56,0Z" fill="#0095c9"/><path id="_Path_" data-name="&lt;Path&gt;" d="M0,512V223.26C0,100.47,100.47,0,223.26,0H512" fill="#00a9d6"/><g id="Linkedin"><path id="_Compound_Path_" data-name="&lt;Compound Path&gt;" d="M108.77,188.55h63.16v203H108.77Zm31.6-100.91a36.59,36.59,0,1,1-36.6,36.59,36.59,36.59,0,0,1,36.6-36.59" fill="#fff"/><path id="_Path_2" data-name="&lt;Path&gt;" d="M211.51,188.55H272V216.3h.87c8.41-16,29-32.79,59.7-32.79,63.88,0,75.69,42,75.69,96.71V391.55H345.15V292.83c0-23.54-.41-53.83-32.79-53.83-32.83,0-37.84,25.66-37.84,52.14V391.55h-63Z" fill="#fff"/></g></svg>