<?xml version="1.0" encoding="utf-8"?>
<!-- Generator: Adobe Illustrator 16.0.0, SVG Export Plug-In . SVG Version: 6.00 Build 0)  -->
<!DOCTYPE svg PUBLIC "-//W3C//DTD SVG 1.1//EN" "http://www.w3.org/Graphics/SVG/1.1/DTD/svg11.dtd">
<svg version="1.1" id="Layer_1" xmlns="http://www.w3.org/2000/svg" xmlns:xlink="http://www.w3.org/1999/xlink" x="0px" y="0px"
	 width="2500px" height="2500px" viewBox="0 0 2500 2500" enable-background="new 0 0 2500 2500" xml:space="preserve">
<g>
	<defs>
		<rect id="SVGID_1_" width="2500" height="2500"/>
	</defs>
	<clipPath id="SVGID_2_">
		<use xlink:href="#SVGID_1_"  overflow="visible"/>
	</clipPath>
	<path clip-path="url(#SVGID_2_)" fill="#F0543F" d="M1546.413,1850.601c-12.968,0-25.404-6.705-32.384-18.338l-285.535-476.173
		l-533.426,145.054c-17.019,4.646-34.956-3.138-43.238-18.706L28.271,309.418c-5.796-10.908-5.89-23.966-0.25-34.955
		c5.64-10.994,16.306-18.527,28.55-20.177l529.887-71.304c14.943-2.007,29.651,5.066,37.409,17.998l639.977,1067.255
		l743.291-202.124L1758.891,716.2c-7.267-10.245-8.962-23.425-4.53-35.173s14.418-20.525,26.641-23.409l347.778-82.138
		c14.188-3.358,29.024,1.766,38.142,13.14l300.944,375.742c7.946,9.929,10.363,23.196,6.422,35.291
		c-3.939,12.096-13.705,21.394-25.984,24.732L2131.27,1110.6l276.4,389.598c6.865,9.675,8.781,22.008,5.186,33.305
		c-3.604,11.297-12.305,20.247-23.495,24.167l-830.479,290.807C1554.777,1849.913,1550.566,1850.601,1546.413,1850.601
		 M1304.186,1335.508l258.775,431.547l754.121-264.067l-263.416-371.29L1304.186,1335.508z M120.398,321.879l583.947,1098.503
		l483.812-131.565L571.896,261.123L120.398,321.879z M1852.887,718.215l231.852,326.798l288.213-78.378L2122.905,654.44
		L1852.887,718.215z"/>
	<rect x="564.412" y="1958.894" clip-path="url(#SVGID_2_)" fill="#6E6E6E" width="31.56" height="339.947"/>
	<path clip-path="url(#SVGID_2_)" fill="#6E6E6E" d="M905.934,2053.573v245.268h-31.109v-42.158
		c-13.225,16.084-28.065,28.182-44.521,36.297c-16.457,8.115-34.454,12.174-53.99,12.174c-34.716,0-64.36-12.587-88.931-37.764
		c-24.572-25.168-36.858-55.793-36.858-91.861c0-35.313,12.399-65.52,37.196-90.621c24.797-25.098,54.629-37.646,89.494-37.646
		c20.138,0,38.361,4.283,54.666,12.85c16.306,8.566,30.621,21.415,42.944,38.548v-45.085H905.934z M779.808,2077.693
		c-17.561,0-33.777,4.317-48.64,12.947c-14.863,8.634-26.683,20.758-35.46,36.369c-8.784,15.61-13.172,32.123-13.172,49.533
		c0,17.268,4.426,33.78,13.285,49.538c8.852,15.761,20.755,28.035,35.685,36.815c14.938,8.784,30.959,13.173,48.076,13.173
		c17.261,0,33.626-4.354,49.091-13.06c15.457-8.709,27.352-20.492,35.685-35.352c8.325-14.859,12.496-31.597,12.496-50.214
		c0-28.369-9.348-52.088-28.036-71.151C830.131,2087.229,807.129,2077.693,779.808,2077.693"/>
	<path clip-path="url(#SVGID_2_)" fill="#6E6E6E" d="M964.996,2053.573h32.236v35.843c9.618-14.123,19.763-24.685,30.432-31.673
		c10.671-6.988,21.792-10.481,33.364-10.481c8.717,0,18.034,2.783,27.953,8.34l-16.456,26.601
		c-6.613-2.852-12.174-4.283-16.682-4.283c-10.521,0-20.664,4.32-30.432,12.962c-9.769,8.646-17.208,22.058-22.318,40.238
		c-3.907,13.977-5.861,42.234-5.861,84.761v82.961h-32.236V2053.573z"/>
	<path clip-path="url(#SVGID_2_)" fill="#6E6E6E" d="M1360.168,2053.573v245.268h-31.108v-42.158
		c-13.226,16.084-28.065,28.182-44.521,36.297s-34.452,12.174-53.99,12.174c-34.716,0-64.36-12.587-88.931-37.764
		c-24.572-25.168-36.857-55.793-36.857-91.861c0-35.313,12.398-65.52,37.195-90.621c24.797-25.098,54.629-37.646,89.495-37.646
		c20.138,0,38.36,4.283,54.666,12.85s30.62,21.415,42.943,38.548v-45.085H1360.168z M1234.042,2077.693
		c-17.561,0-33.776,4.317-48.64,12.947c-14.863,8.634-26.683,20.758-35.459,36.369c-8.784,15.61-13.172,32.123-13.172,49.533
		c0,17.268,4.425,33.78,13.285,49.538c8.851,15.761,20.754,28.035,35.685,36.815c14.938,8.784,30.958,13.173,48.075,13.173
		c17.261,0,33.627-4.354,49.091-13.06c15.457-8.709,27.353-20.492,35.686-35.352c8.325-14.859,12.495-31.597,12.495-50.214
		c0-28.369-9.347-52.088-28.035-71.151C1284.365,2087.229,1261.364,2077.693,1234.042,2077.693"/>
	<polygon clip-path="url(#SVGID_2_)" fill="#6E6E6E" points="1407.959,2053.573 1441.548,2053.573 1523.874,2232.358 
		1605.208,2053.573 1639.021,2053.573 1526.759,2298.841 1520.898,2298.841 	"/>
	<path clip-path="url(#SVGID_2_)" fill="#6E6E6E" d="M1893.528,2217.458l26.601,13.977c-8.724,17.133-18.801,30.962-30.237,41.479
		c-11.429,10.523-24.293,18.526-38.578,24.012c-14.299,5.485-30.47,8.229-48.519,8.229c-40.014,0-71.296-13.112-93.86-39.341
		c-22.565-26.225-33.845-55.869-33.845-88.932c0-31.108,9.551-58.836,28.652-83.182c24.218-30.959,56.635-46.438,97.249-46.438
		c41.816,0,75.21,15.858,100.18,47.565c17.748,22.396,26.773,50.349,27.073,83.858h-220.693
		c0.602,28.486,9.702,51.841,27.308,70.059c17.605,18.219,39.352,27.326,65.23,27.326c12.489,0,24.632-2.172,36.452-6.512
		c11.805-4.339,21.852-10.106,30.124-17.294C1874.946,2245.08,1883.896,2233.479,1893.528,2217.458 M1893.528,2151.408
		c-4.215-16.828-10.347-30.282-18.396-40.352c-8.054-10.065-18.694-18.181-31.935-24.346c-13.247-6.162-27.164-9.243-41.757-9.243
		c-24.075,0-44.77,7.743-62.067,23.219c-12.646,11.271-22.196,28.179-28.666,50.722H1893.528z"/>
	<rect x="1982.347" y="1958.894" clip-path="url(#SVGID_2_)" fill="#6E6E6E" width="31.561" height="339.947"/>
</g>
</svg>
